<?xml version="1.0" encoding="utf-8"?>
<!-- Generator: Adobe Illustrator 25.4.1, SVG Export Plug-In . SVG Version: 6.00 Build 0)  -->
<svg version="1.1" id="圖層_1" xmlns="http://www.w3.org/2000/svg" xmlns:xlink="http://www.w3.org/1999/xlink" x="0px" y="0px"
	 viewBox="0 0 206.5 41.5" style="enable-background:new 0 0 206.5 41.5;" xml:space="preserve">
<style type="text/css">
	.st0{fill:none;stroke:#040000;stroke-width:0.75;stroke-miterlimit:10;}
	.st1{fill:none;stroke:#040000;stroke-width:0.3267;stroke-miterlimit:10;}
	.st2{fill:#009481;}
	.st3{fill:#FDD000;}
	.st4{fill:#040000;}
	.st5{fill:none;}
</style>
<g>
	<path class="st0" d="M-3-9.3"/>
	<path class="st1" d="M58.6-0.7"/>
	<g>
		<polygon class="st2" points="193.2,41.4 73.4,41.4 83.6,0.7 203.3,0.7 		"/>
		<g>
			<path class="st3" d="M118.1,25.8l1.1-4.3h-13.9l0.7-3l8.1-1.3l0.9-3.8h1.3l-1.3,5.1h4.8l2.3-9.4H110l0.8-3.4H106l-0.8,3.4H92.9
				l-2.3,9.4h4.6l-0.5,1.9l6.3-1l-0.5,2.1H89.8l-1.1,4.3h10.6L96.7,36h18.8l2-8.1h-4.9l-0.9,3.8h-9.1l1.5-6h14 M96,15.9l0.6-2.4
				h14.2L96,15.9z"/>
			<path class="st3" d="M151.3,6.3H136c-2.8,2.4-7.4,5.7-11.7,7.9l3.2,3.2c0.5-0.3,1-0.6,1.5-0.9h20.7l-0.3,1.3h-25l-1.1,4.2h25
				l-0.3,1.3h-21.6l-1.1,4.3h2.1l-4.6,4.5l-3.7,1l5.8,2.9l8.5-8.5h0.4l-1.7,8.5l9.9-1.3l2.9,1.3l-1.2-6.3l-5.7,0.8l0.6-3h2.1v1.8
				l4.7-0.6v-1.1h6.4l3.8-15.3h-10.5L151.3,6.3 M139,12.2h-3.6c0.9-0.7,1.7-1.3,2.2-1.7h3.2L139,12.2z"/>
			<polygon class="st3" points="145,29.9 146.1,35.6 150.5,33.7 149.4,28.2 			"/>
			<path class="st3" d="M189.9,10.5l1.1-4.2h-19.4l-0.5,2.1l-3.7-2.1c-3.1,4.7-7.5,10.1-11.8,14.3l3.7,2.3c0.5-0.5,1-1,1.5-1.6
				l-3.7,14.8h4.8l5.7-22.9c1.2-1.7,2.4-3.3,3.4-4.8l-0.5,2.1h7.2l-0.4,1.7h-7.2l-3.8,15.3h6.3c-1.3,1.6-4.2,3.8-8.1,3.8l-1.2,4.7
				h1.1c3.6,0,6.8-1.2,9.2-3.1l9.9,3.1l1.1-4.6l-7.5-2.3c0.4-0.5,0.7-1.1,1-1.7h7.5l3.8-15.3h-7.3l0.4-1.7h7.4 M174.7,23.3h-2.4
				l0.3-1.3h2.4L174.7,23.3 M176,17.8h-2.4l0.3-1.3h2.4L176,17.8 M182,23.3h-2.5l0.3-1.3h2.4L182,23.3 M183.6,16.5l-0.3,1.3h-2.4
				l0.3-1.3H183.6z"/>
		</g>
	</g>
	<g>
		<g>
			<path class="st4" d="M198.4,37.2h1.1c0.2,0,0.6,0,0.6,0.4s-0.3,0.5-0.7,0.5h-1L198.4,37.2L198.4,37.2z M198.4,38.4h1
				c0.5,0,0.6,0.3,0.6,0.5c0,0.1,0,0.5,0.1,0.7h0.5v-0.1c-0.1-0.1-0.2-0.1-0.2-0.3v-0.5c0-0.4-0.2-0.4-0.4-0.5
				c0.2-0.1,0.4-0.2,0.4-0.6c0-0.6-0.5-0.7-1-0.7H198v2.6h0.4V38.4z"/>
			<path class="st4" d="M196.7,38.3c0,1.3,1.1,2.4,2.5,2.4c1.3,0,2.4-1.1,2.4-2.4c0-1.4-1.1-2.5-2.4-2.5
				C197.8,35.8,196.7,36.9,196.7,38.3z M197.1,38.3c0-1.1,0.9-2.1,2.1-2.1c1.1,0,2.1,0.9,2.1,2.1c0,1.1-0.9,2.1-2.1,2.1
				C198,40.3,197.1,39.4,197.1,38.3z"/>
		</g>
	</g>
	<g>
		<g>
			<g>
				<ellipse class="st3" cx="28.3" cy="21.4" rx="28.3" ry="20.2"/>
			</g>
			<g>
				<g>
					<g>
						<path d="M53.3,16.7l-0.6-2.3l-0.1-0.1l-10.1,3.8H25.6l0,0v-0.2c0,0,0.3-0.3,0.5-0.9c0.3-0.9,0.5-1.9,0.5-3.1V7.5h-0.7
							l-4.1,4.2h-6.5l-4.1-4.2h-0.7v6.4c0,1.3,0.2,2.4,0.6,3.3c0.7,1.4,1.5,1.8,1.5,1.8v0.2h-0.1h-0.7L9.6,17H8.9v3.5
							c0,1.1,0.3,2,0.7,2.6c0.5,0.7,1.1,1.1,1.9,1.4c0.4,0.2,0.9,0.2,1.2,0.2V25H9.8l-0.1,0.1v1.2l0.2,0.2l2.7,1.4v2l-2,1.4
							l-0.1,0.1v1.3l0.1,0.1h2c3.2,0,5.8-2.6,5.8-5.8v-2.2l1.9,2.3l-2.2,8.5l0.1,0.1h3.6l0.2-0.1l5.8-6.8h9.4l5.8,6.8l0.2,0.1h3.6
							l0.1-0.1l-3.2-12.8L53.3,16.7L53.3,16.7z"/>
						<path class="st3" d="M19.9,15.6c-0.1-0.2-0.1-0.5,0.2-0.8c0.1-0.1,1.2-0.8,2.9-1c0.4,0,0.7,0.2,0.7,0.6c0,0.4-0.2,0.6-0.7,0.6
							c-1.3,0.1-2.3,0.6-2.5,0.7C20.4,15.9,20.1,15.9,19.9,15.6z"/>
						<path class="st3" d="M17.2,15.6c0.1-0.2,0.1-0.5-0.2-0.8c-0.1-0.1-1.2-0.8-2.9-1c-0.4,0-0.7,0.2-0.7,0.6
							c0,0.4,0.2,0.6,0.7,0.6c1.3,0.1,2.3,0.6,2.5,0.7C16.7,15.9,17,15.9,17.2,15.6z"/>
						<path class="st3" d="M15.2,22c-0.1-0.2-0.1-0.4,0.1-0.6c0.1-0.1,0.9-0.6,2.1-0.7c0.3,0,0.5,0.1,0.5,0.4s-0.1,0.4-0.5,0.5
							c-0.9,0.1-1.7,0.5-1.9,0.5C15.6,22.2,15.4,22.2,15.2,22z"/>
						<path class="st3" d="M13.6,22c0.1-0.2,0.1-0.4-0.1-0.6c-0.1-0.1-0.9-0.6-2.1-0.7c-0.3,0-0.5,0.1-0.5,0.4s0.1,0.4,0.5,0.5
							c0.9,0.1,1.7,0.5,1.9,0.5C13.3,22.2,13.5,22.2,13.6,22z"/>
					</g>
				</g>
			</g>
		</g>
		<rect x="-13.4" y="-11.3" class="st5" width="85.3" height="64.6"/>
	</g>
</g>
</svg>
