<?xml version="1.0" encoding="utf-8"?>
<!-- Generator: Adobe Illustrator 26.0.1, SVG Export Plug-In . SVG Version: 6.00 Build 0)  -->
<svg version="1.1" id="Layer_1" xmlns="http://www.w3.org/2000/svg" xmlns:xlink="http://www.w3.org/1999/xlink" x="0px" y="0px"
	 viewBox="0 0 98.79 34.37" style="enable-background:new 0 0 98.79 34.37;" xml:space="preserve">
<style type="text/css">
	.st0{fill:#0083CD;}
	.st1{fill:#003C83;}
	.st2{fill:url(#SVGID_1_);}
</style>
<g>
	<path class="st0" d="M75.6,30.65H78l0.18-0.88h-4.64l0.2-0.96h4.48l0.6-2.87h-6.06l-0.19,0.89h4.55l-0.23,1.11h-4.47l-0.38,1.83
		c-0.06,0.28-0.02,0.5,0.12,0.66c0.14,0.15,0.37,0.23,0.67,0.23h1.26l-0.28,1.32l-3.1,0l-0.18,0.87h7.71l0.18-0.87h-3.09L75.6,30.65
		z"/>
	<polygon class="st0" points="84.7,34.05 86.22,34.05 87.95,25.83 86.43,25.83 	"/>
	<path class="st0" d="M79.92,31.28c0.87-0.08,2-0.76,2.47-1.47c0.17,0.71,1.01,1.4,1.85,1.47l0.03,0l0.95-0.68l-0.13-0.03
		c-1.04-0.19-1.8-1.37-1.48-2.88l0.15-0.73h1.61l0.18-0.88h-4.75l-0.19,0.88h1.6l-0.15,0.73c-0.32,1.51-1.56,2.69-2.7,2.88
		l-0.15,0.03l0.68,0.68L79.92,31.28z"/>
	<path class="st0" d="M89.02,30.44c1.15-0.01,2.8-0.66,3.43-1.53c0.28,0.86,1.65,1.52,2.79,1.53h0.03l0.9-0.69L96,29.74
		c-1.28-0.05-2.72-1.19-2.39-2.73l0.24-1.15h-1.53l-0.24,1.15c-0.32,1.54-2.23,2.69-3.54,2.73l-0.16,0.01l0.61,0.69H89.02z"/>
	<polygon class="st0" points="95.71,31.97 87.91,31.97 87.73,32.85 95.53,32.85 	"/>
	<g>
		<polygon class="st0" points="69.37,29.36 70.44,29.37 70.63,28.49 69.55,28.49 69.72,27.68 70.8,27.68 70.98,26.8 69.9,26.8 
			70.11,25.85 68.57,25.85 67.64,30.25 69.18,30.25 		"/>
		<g>
			<g>
				<path class="st0" d="M65.17,25.89c-1.29,0-2.5,0.74-2.79,2.09c-0.28,1.35,0.61,2.09,1.91,2.09c1.3,0,2.5-0.74,2.79-2.09
					C67.36,26.62,66.47,25.89,65.17,25.89z M65.61,27.98c-0.17,0.79-0.65,1.21-1.14,1.21c-0.49,0-0.79-0.43-0.63-1.21
					c0.17-0.79,0.65-1.22,1.14-1.22C65.47,26.76,65.78,27.19,65.61,27.98z"/>
			</g>
		</g>
		<g>
			<g>
				<path class="st0" d="M66.59,30.09c-1.41,0-2.71,0.75-3,2.14c-0.29,1.39,0.69,2.14,2.1,2.14c1.41,0,2.71-0.75,3-2.14
					C68.98,30.84,67.99,30.09,66.59,30.09z M67.1,32.23c-0.17,0.81-0.69,1.24-1.22,1.24c-0.53,0-0.87-0.44-0.7-1.24
					c0.17-0.8,0.69-1.24,1.22-1.24C66.93,30.99,67.27,31.42,67.1,32.23z"/>
			</g>
		</g>
	</g>
	<path class="st0" d="M60.54,33.18h-4.58l0.12-0.59h4.4l0.48-2.29h-6.01l-0.18,0.88h4.49l-0.12,0.58h-4.4l-0.29,1.36
		c-0.06,0.28,0,0.52,0.15,0.69c0.15,0.17,0.39,0.26,0.7,0.26h5.05L60.54,33.18z"/>
	<polygon class="st0" points="61.9,25.83 60.38,25.83 59.54,29.88 61.05,29.88 	"/>
	<g>
		<g>
			<path class="st0" d="M56.93,25.8c-1.32,0-2.54,0.72-2.82,2.05c-0.28,1.32,0.64,2.05,1.96,2.05c1.32,0,2.54-0.72,2.82-2.05
				C59.17,26.52,58.25,25.8,56.93,25.8z M57.4,27.85c-0.16,0.77-0.65,1.19-1.15,1.19c-0.5,0-0.81-0.42-0.65-1.19
				c0.16-0.77,0.65-1.19,1.15-1.19C57.25,26.66,57.56,27.08,57.4,27.85z"/>
		</g>
	</g>
	<g>
		<path class="st1" d="M87.83,4c-3.13,0.01-5.46,0.86-6.81,3.13c6.2,0.07,9.53,0.18,15.99,0.5L98.79,4H87.83z"/>
		<path class="st1" d="M37.55,14.53L43.49,4h-6.95l-3.88,8.34L31.11,4h-7.23l4.73,15.77C28.61,19.77,33.64,16.25,37.55,14.53z"/>
		<path class="st1" d="M24.07,15.84h-6L21.05,0H14.1l-3.05,16.2c0,0,0,0,0,0c0,0-0.72,4.02,4.03,4.02h10.3L24.07,15.84z"/>
		<path class="st1" d="M49.35,3.99h7.78l0.32,4.78C52.32,9.64,47.2,10.9,42.34,12.7l3.79-6.68C46.14,6.02,47.22,3.99,49.35,3.99z"/>
		<path class="st1" d="M75.2,3.99H62.4l-0.92,4.18c5.83-0.76,11.67-1.04,16.97-1.05C78.52,6.33,78.45,4.03,75.2,3.99z"/>
		<path class="st1" d="M3.03,4.14L0,20.22h6.95v0h0.02L10.74,0H2.69C2.69,0,3.51,1.57,3.03,4.14z"/>
		<g>
			
				<radialGradient id="SVGID_1_" cx="97.0825" cy="210.3627" r="47.9726" gradientTransform="matrix(1.1092 -0.1106 0.039 0.317 -49.205 -30.6723)" gradientUnits="userSpaceOnUse">
				<stop  offset="0.6758" style="stop-color:#0083CD"/>
				<stop  offset="0.8248" style="stop-color:#009DE0"/>
				<stop  offset="0.9231" style="stop-color:#00AFEC"/>
			</radialGradient>
			<path class="st2" d="M90.35,9.95c-0.56-0.04-1.06-0.07-1.61-0.11l-0.4,2.51l1.56,0.03l-0.22,1.59c-0.33,1.84-2.15,1.79-2.15,1.79
				c-1.62,0-1.83-1.07-1.64-2.02l0.29-1.58c0,0,0,0,0,0l0.42-2.34c-4.4-0.34-8.76-0.39-12.63-0.34
				c-36.27,0.46-51.66,15.43-51.7,15.47l-0.2,0.21h9.67l3.47-6.24c0.72-1.23,1.96-1.79,2.8-2.17c0.82-0.3,1.67-0.6,2.56-0.89
				l-1.98,3.54h7.07l2.2-4.34c0.76-1.28,2.16-1.65,2.16-1.65c0.33-0.06,0.66-0.13,0.99-0.19l0.04,6.18h7.1l-0.47-7.19
				c0.97-0.11,1.96-0.22,2.98-0.31l-1.65,7.5h6.82l1.7-7.91c0.44-0.01,1.74,0.01,2.18,0c1.78,0,1.36,1.58,1.36,1.58l-1.3,6.34h6.59
				l1.58-7.46h1.63l-0.31,1.39c-0.6,2.95,0.38,4.8,2.1,5.65c1.34,0.64,5.03,1.04,7.54-0.61l-0.19,1.04h6.16l1.49-8.96
				c-0.03,0-0.05,0-0.08-0.01C94.26,10.24,92.28,10.08,90.35,9.95z"/>
		</g>
	</g>
</g>
</svg>
